# xmcd
#
# Track frame offsets:
#	182
#	10032
#	22420
#	34750
#	45342
#	58115
#	72075
#	80692
#	91337
#	103030
#
# Disc length: 1541
#
# Revision: 3
# Processed by: cddbd v1.5.1PL0 Copyright (c) Steve Scherf et al.
# Submitted via: ExactAudioCopy v0.90b4
# Normalized: r2:DSETVAR1
#
DISCID=7b06030a
DTITLE=Various Artist - Country Hits Of The 40's
DYEAR=1990
DGENRE=Country
TTITLE0=Margaret Whiting and Jimmy Wakely - Slippin' Around
TTITLE1=Leon Payne - I Love You Because
TTITLE2=Tex Williams - Smoke! Smoke! Smoke! (That Cigarette)
TTITLE3=Merle Travis - Divorce Me C.O.D.
TTITLE4=Al Dexter - Pistol Packin' Mama
TTITLE5=Tennessee - Mule Train
TTITLE6=Tex Ritter - There's A New Moon Over My Shoulder
TTITLE7=Hank Thompson - Whoa, Sailor
TTITLE8=Jimmie Davis - You Are My Sunshine
TTITLE9=Jack Guthrie - Oklahoma Hills
EXTD=
EXTT0=Margret Whiting - Jimmy Wakely
EXTT1=Leon Payne
EXTT2=Tex Williams
EXTT3=Merle Travis
EXTT4=Al Dexter
EXTT5=Tennessee Ernie Ford
EXTT6=Tex  Ritter
EXTT7=Hank Thompson and His Brazos Valley Boys
EXTT8=Jimmie Davis
EXTT9=Jack Guthrie
PLAYORDER=
